{"title":"Deadly Crossing 2011 DVDrip English Klam","uid":6445867,"size":1433862878,"categoryP":"video","categoryS":"movies","magnet":"?xt=urn:btih:0e32e7d7eee236f456b78b56c96dec1c7d424c5d&amp;dn=Deadly+Crossing+2011+DVDrip+English+Klam&amp;tr=udp%3A%2F%2Ftracker.openbittorrent.com%3A80&amp;tr=udp%3A%2F%2Fopen.demonii.com%3A1337&amp;tr=udp%3A%2F%2Ftracker.coppersurfer.tk%3A6969&amp;tr=udp%3A%2F%2Fexodus.desync.com%3A6969","seeders":0,"leechers":0,"uploader":"Klambake","files":4,"time":1307282853,"description":"Movie legend Steven Segal returns in Deadly Crossing, and explosive, non-stop thrill ride packed with mind blowing action sequences and brutal martial arts fight scenes.\nWhen an influx of violent and ruthless heroin dealers descend on Seattle, Elijah Kane (Steven Seagal) leads an elite undercover squad of cops to bring them to justice. Tearing up the rulebook, Kane and his crack team of law enforcers storm the city streets to clean out the drug barons by any brutal means necessary.\n\nGeneral:\n\nComplete name                    : Deadly Crossing\\Deadly Crossing.avi\nFormat                           : AVI\nFormat/Info                      : Audio Video Interleave\nFile size                        : 1.34 GiB\nDuration                         : 1h 26mn\nOverall bit rate                 : 2 207 Kbps\n\nVideo:\n\nFormat                           : MPEG-4 Visual\nFormat profile                   : Simple@L3\nFormat settings, BVOP            : No\nFormat settings, QPel            : No\nFormat settings, GMC             : No warppoints\nFormat settings, Matrix          : Default (H.263)\nCodec ID                         : XVID\nCodec ID/Hint                    : XviD\nDuration                         : 1h 26mn\nBit rate                         : 1 812 Kbps\nWidth                            : 704 pixels\nHeight                           : 396 pixels\nDisplay aspect ratio             : 16:9\nFrame rate                       : 25.000 fps\nColor space                      : YUV\nChroma subsampling               : 4:2:0\nBit depth                        : 8 bits\nScan type                        : Progressive\nBits/(Pixel*Frame)               : 0.260\nStream size                      : 1.10 GiB (82%)\nWriting library                  : XviD 1.1.2 (UTC 2006-11-01)\n\nAudio:\n\nFormat                           : AC-3\nFormat/Info                      : Audio Coding 3\nMode extension                   : CM (complete main)\nCodec ID                         : 2000\nDuration                         : 1h 26mn\nBit rate mode                    : Constant\nBit rate                         : 384 Kbps\nChannel(s)                       : 6 channels\nChannel positions                : Front: L C R, Side: L R, LFE\nSampling rate                    : 48.0 KHz\nBit depth                        : 16 bits\nStream size                      : 238 MiB (17%)\nAlignment                        : Aligned on interleaves\nInterleave, duration             : 32 ms (0.80 video frame)\nInterleave, preload duration     : 256 ms\n\n","torrent":{"xt":"urn:btih:0e32e7d7eee236f456b78b56c96dec1c7d424c5d","amp;dn":"Deadly+Crossing+2011+DVDrip+English+Klam","amp;tr":["udp%3A%2F%2Ftracker.openbittorrent.com%3A80","udp%3A%2F%2Fopen.demonii.com%3A1337","udp%3A%2F%2Ftracker.coppersurfer.tk%3A6969","udp%3A%2F%2Fexodus.desync.com%3A6969"],"infoHash":"0e32e7d7eee236f456b78b56c96dec1c7d424c5d","infoHashBuffer":{"type":"Buffer","data":[14,50,231,215,238,226,54,244,86,183,139,86,201,109,236,28,125,66,76,93]},"announce":[],"urlList":[]}}